<?xml version="1.0" encoding="UTF-8"?>
<svg width="120px" height="107px" viewBox="0 0 120 107" version="1.1" xmlns="http://www.w3.org/2000/svg" xmlns:xlink="http://www.w3.org/1999/xlink">
    <!-- Generator: Sketch 49.3 (51167) - http://www.bohemiancoding.com/sketch -->
    <title>mdn-120</title>
    <desc>Created with Sketch.</desc>
    <defs>
        <linearGradient x1="49.9992477%" y1="100.099973%" x2="49.9992477%" y2="0.100755432%" id="linearGradient-1">
            <stop stop-color="#2075BC" offset="0%"></stop>
            <stop stop-color="#29AAE1" offset="100%"></stop>
        </linearGradient>
        <linearGradient x1="49.9986679%" y1="100.099973%" x2="49.9986679%" y2="0.100755432%" id="linearGradient-2">
            <stop stop-color="#0A6AA8" offset="0%"></stop>
            <stop stop-color="#1699C8" offset="100%"></stop>
        </linearGradient>
        <linearGradient x1="49.9972753%" y1="100.099973%" x2="49.9972753%" y2="0.100755432%" id="linearGradient-3">
            <stop stop-color="#2075BC" offset="0%"></stop>
            <stop stop-color="#29AAE1" offset="100%"></stop>
        </linearGradient>
        <linearGradient x1="49.9976061%" y1="100.099973%" x2="49.9976061%" y2="0.100755432%" id="linearGradient-4">
            <stop stop-color="#0A6AA8" offset="0%"></stop>
            <stop stop-color="#1699C8" offset="100%"></stop>
        </linearGradient>
        <linearGradient x1="49.9978359%" y1="100.099973%" x2="49.9978359%" y2="0.100755432%" id="linearGradient-5">
            <stop stop-color="#2075BC" offset="0%"></stop>
            <stop stop-color="#29AAE1" offset="100%"></stop>
        </linearGradient>
        <path d="M85.5231933,32.6445378 C84.4038655,29.4710924 84.7759664,24.0579832 84.2178151,23.3112605 C80.6707563,18.4578151 67.9754622,17.7110924 62.1897479,11.3636975 C63.1235294,8.1912605 61.0704202,5.76403361 59.0178151,3.71092437 C55.8423529,1.4707563 51.5510924,2.40403361 48.1895798,3.33731092 C44.4564706,2.59109244 40.9089076,1.09714286 37.1763025,0.163865546 C28.9638655,-0.769411765 20.749916,5.01731092 20.749916,5.01731092 C14.7761345,8.75092437 5.63042017,16.5912605 1.14957983,21.0710924 C2.27092437,21.2581513 3.3897479,20.3248739 4.69714286,20.3248739 L13.2831933,18.0847059 C9.73764706,21.0715966 2.27092437,26.1115966 0.0307563025,30.2178151 C2.64302521,29.2845378 8.24319328,26.2976471 11.0430252,25.9245378 C8.61680672,27.9781513 3.57630252,32.0843697 1.89731092,34.6971429 C2.08336134,34.8847059 1.89731092,35.0707563 1.89731092,35.2568067 C3.94991597,34.1369748 8.98991597,31.150084 11.4166387,30.9635294 C8.99042017,33.3897479 4.69714286,38.2442017 3.76386555,41.4181513 C5.81647059,40.1107563 11.0430252,37.3109244 13.2831933,36.5631933 C12.7235294,37.870084 11.6042017,38.8033613 10.8569748,39.9231933 C9.73764706,41.6036975 7.30941176,43.6563025 7.30941176,45.7109244 C9.17596639,44.029916 11.4166387,42.5369748 13.6568067,41.4181513 C12.7235294,43.4702521 10.8569748,45.1512605 10.2968067,47.7630252 C11.7897479,46.270084 14.590084,45.5228571 16.4566387,44.9631933 L16.2705882,45.1512605 C16.082521,45.3368067 14.0304202,46.8297479 12.537479,48.5102521 C13.8423529,48.5102521 12.9090756,48.3231933 14.590084,48.6963025 L15.5233613,48.6963025 C15.1497479,48.8843697 14.590084,49.2559664 14.0304202,49.4435294 C13.2831933,49.8171429 12.349916,50.3773109 11.6042017,50.7504202 C15.1497479,55.2297479 19.4430252,58.9628571 24.4830252,61.3895798 C31.0164706,64.5630252 38.1090756,65.6848739 45.3887395,64.7510924 C45.3887395,64.377479 45.2031933,64.0038655 45.0176471,63.4442017 C44.8315966,62.8845378 44.6415126,62.5104202 44.6415126,61.9507563 C47.0697479,57.469916 45.7648739,49.6295798 52.1087395,46.4561345 C56.4040336,44.2179832 56.7751261,43.0966387 61.6321008,44.029916 C64.2423529,44.5895798 70.0321008,46.4561345 72.6423529,45.8969748 C75.070084,44.5895798 76.3754622,43.8443697 78.6181513,42.3514286 C81.232437,42.9110924 82.1657143,42.5369748 83.0989916,41.230084 C82.1657143,42.5369748 84.7759664,36.3771429 85.8993277,34.1369748 L85.5231933,32.6445378 Z" id="path-6"></path>
        <path d="M85.5231933,32.6445378 C84.4038655,29.4710924 84.7759664,24.0579832 84.2178151,23.3112605 C80.6707563,18.4578151 67.9754622,17.7110924 62.1897479,11.3636975 C63.1235294,8.1912605 61.0704202,5.76403361 59.0178151,3.71092437 C55.8423529,1.4707563 51.5510924,2.40403361 48.1895798,3.33731092 C44.4564706,2.59109244 40.9089076,1.09714286 37.1763025,0.163865546 C28.9638655,-0.769411765 20.749916,5.01731092 20.749916,5.01731092 C14.7761345,8.75092437 5.63042017,16.5912605 1.14957983,21.0710924 C2.27092437,21.2581513 3.3897479,20.3248739 4.69714286,20.3248739 L13.2831933,18.0847059 C9.73764706,21.0715966 2.27092437,26.1115966 0.0307563025,30.2178151 C2.64302521,29.2845378 8.24319328,26.2976471 11.0430252,25.9245378 C8.61680672,27.9781513 3.57630252,32.0843697 1.89731092,34.6971429 C2.08336134,34.8847059 1.89731092,35.0707563 1.89731092,35.2568067 C3.94991597,34.1369748 8.98991597,31.150084 11.4166387,30.9635294 C8.99042017,33.3897479 4.69714286,38.2442017 3.76386555,41.4181513 C5.81647059,40.1107563 11.0430252,37.3109244 13.2831933,36.5631933 C12.7235294,37.870084 11.6042017,38.8033613 10.8569748,39.9231933 C9.73764706,41.6036975 7.30941176,43.6563025 7.30941176,45.7109244 C9.17596639,44.029916 11.4166387,42.5369748 13.6568067,41.4181513 C12.7235294,43.4702521 10.8569748,45.1512605 10.2968067,47.7630252 C11.7897479,46.270084 14.590084,45.5228571 16.4566387,44.9631933 L16.2705882,45.1512605 C16.082521,45.3368067 14.0304202,46.8297479 12.537479,48.5102521 C13.8423529,48.5102521 12.9090756,48.3231933 14.590084,48.6963025 L15.5233613,48.6963025 C15.1497479,48.8843697 14.590084,49.2559664 14.0304202,49.4435294 C13.2831933,49.8171429 12.349916,50.3773109 11.6042017,50.7504202 C15.1497479,55.2297479 19.4430252,58.9628571 24.4830252,61.3895798 C31.0164706,64.5630252 38.1090756,65.6848739 45.3887395,64.7510924 C45.3887395,64.377479 45.2031933,64.0038655 45.0176471,63.4442017 C44.8315966,62.8845378 44.6415126,62.5104202 44.6415126,61.9507563 C47.0697479,57.469916 45.7648739,49.6295798 52.1087395,46.4561345 C56.4040336,44.2179832 56.7751261,43.0966387 61.6321008,44.029916 C64.2423529,44.5895798 70.0321008,46.4561345 72.6423529,45.8969748 C75.070084,44.5895798 76.3754622,43.8443697 78.6181513,42.3514286 C81.232437,42.9110924 82.1657143,42.5369748 83.0989916,41.230084 C82.1657143,42.5369748 84.7759664,36.3771429 85.8993277,34.1369748 L85.5231933,32.6445378 Z" id="path-8"></path>
        <path d="M85.5231933,32.6445378 C84.4038655,29.4710924 84.7759664,24.0579832 84.2178151,23.3112605 C80.6707563,18.4578151 67.9754622,17.7110924 62.1897479,11.3636975 C63.1235294,8.1912605 61.0704202,5.76403361 59.0178151,3.71092437 C55.8423529,1.4707563 51.5510924,2.40403361 48.1895798,3.33731092 C44.4564706,2.59109244 40.9089076,1.09714286 37.1763025,0.163865546 C28.9638655,-0.769411765 20.749916,5.01731092 20.749916,5.01731092 C14.7761345,8.75092437 5.63042017,16.5912605 1.14957983,21.0710924 C2.27092437,21.2581513 3.3897479,20.3248739 4.69714286,20.3248739 L13.2831933,18.0847059 C9.73764706,21.0715966 2.27092437,26.1115966 0.0307563025,30.2178151 C2.64302521,29.2845378 8.24319328,26.2976471 11.0430252,25.9245378 C8.61680672,27.9781513 3.57630252,32.0843697 1.89731092,34.6971429 C2.08336134,34.8847059 1.89731092,35.0707563 1.89731092,35.2568067 C3.94991597,34.1369748 8.98991597,31.150084 11.4166387,30.9635294 C8.99042017,33.3897479 4.69714286,38.2442017 3.76386555,41.4181513 C5.81647059,40.1107563 11.0430252,37.3109244 13.2831933,36.5631933 C12.7235294,37.870084 11.6042017,38.8033613 10.8569748,39.9231933 C9.73764706,41.6036975 7.30941176,43.6563025 7.30941176,45.7109244 C9.17596639,44.029916 11.4166387,42.5369748 13.6568067,41.4181513 C12.7235294,43.4702521 10.8569748,45.1512605 10.2968067,47.7630252 C11.7897479,46.270084 14.590084,45.5228571 16.4566387,44.9631933 L16.2705882,45.1512605 C16.082521,45.3368067 14.0304202,46.8297479 12.537479,48.5102521 C13.8423529,48.5102521 12.9090756,48.3231933 14.590084,48.6963025 L15.5233613,48.6963025 C15.1497479,48.8843697 14.590084,49.2559664 14.0304202,49.4435294 C13.2831933,49.8171429 12.349916,50.3773109 11.6042017,50.7504202 C15.1497479,55.2297479 19.4430252,58.9628571 24.4830252,61.3895798 C31.0164706,64.5630252 38.1090756,65.6848739 45.3887395,64.7510924 C45.3887395,64.377479 45.2031933,64.0038655 45.0176471,63.4442017 C44.8315966,62.8845378 44.6415126,62.5104202 44.6415126,61.9507563 C47.0697479,57.469916 45.7648739,49.6295798 52.1087395,46.4561345 C56.4040336,44.2179832 56.7751261,43.0966387 61.6321008,44.029916 C64.2423529,44.5895798 70.0321008,46.4561345 72.6423529,45.8969748 C75.070084,44.5895798 76.3754622,43.8443697 78.6181513,42.3514286 C81.232437,42.9110924 82.1657143,42.5369748 83.0989916,41.230084 C82.1657143,42.5369748 84.7759664,36.3771429 85.8993277,34.1369748 L85.5231933,32.6445378 Z" id="path-10"></path>
        <path d="M85.5231933,32.6445378 C84.4038655,29.4710924 84.7759664,24.0579832 84.2178151,23.3112605 C80.6707563,18.4578151 67.9754622,17.7110924 62.1897479,11.3636975 C63.1235294,8.1912605 61.0704202,5.76403361 59.0178151,3.71092437 C55.8423529,1.4707563 51.5510924,2.40403361 48.1895798,3.33731092 C44.4564706,2.59109244 40.9089076,1.09714286 37.1763025,0.163865546 C28.9638655,-0.769411765 20.749916,5.01731092 20.749916,5.01731092 C14.7761345,8.75092437 5.63042017,16.5912605 1.14957983,21.0710924 C2.27092437,21.2581513 3.3897479,20.3248739 4.69714286,20.3248739 L13.2831933,18.0847059 C9.73764706,21.0715966 2.27092437,26.1115966 0.0307563025,30.2178151 C2.64302521,29.2845378 8.24319328,26.2976471 11.0430252,25.9245378 C8.61680672,27.9781513 3.57630252,32.0843697 1.89731092,34.6971429 C2.08336134,34.8847059 1.89731092,35.0707563 1.89731092,35.2568067 C3.94991597,34.1369748 8.98991597,31.150084 11.4166387,30.9635294 C8.99042017,33.3897479 4.69714286,38.2442017 3.76386555,41.4181513 C5.81647059,40.1107563 11.0430252,37.3109244 13.2831933,36.5631933 C12.7235294,37.870084 11.6042017,38.8033613 10.8569748,39.9231933 C9.73764706,41.6036975 7.30941176,43.6563025 7.30941176,45.7109244 C9.17596639,44.029916 11.4166387,42.5369748 13.6568067,41.4181513 C12.7235294,43.4702521 10.8569748,45.1512605 10.2968067,47.7630252 C11.7897479,46.270084 14.590084,45.5228571 16.4566387,44.9631933 L16.2705882,45.1512605 C16.082521,45.3368067 14.0304202,46.8297479 12.537479,48.5102521 C13.8423529,48.5102521 12.9090756,48.3231933 14.590084,48.6963025 L15.5233613,48.6963025 C15.1497479,48.8843697 14.590084,49.2559664 14.0304202,49.4435294 C13.2831933,49.8171429 12.349916,50.3773109 11.6042017,50.7504202 C15.1497479,55.2297479 19.4430252,58.9628571 24.4830252,61.3895798 C31.0164706,64.5630252 38.1090756,65.6848739 45.3887395,64.7510924 C45.3887395,64.377479 45.2031933,64.0038655 45.0176471,63.4442017 C44.8315966,62.8845378 44.6415126,62.5104202 44.6415126,61.9507563 C47.0697479,57.469916 45.7648739,49.6295798 52.1087395,46.4561345 C56.4040336,44.2179832 56.7751261,43.0966387 61.6321008,44.029916 C64.2423529,44.5895798 70.0321008,46.4561345 72.6423529,45.8969748 C75.070084,44.5895798 76.3754622,43.8443697 78.6181513,42.3514286 C81.232437,42.9110924 82.1657143,42.5369748 83.0989916,41.230084 C82.1657143,42.5369748 84.7759664,36.3771429 85.8993277,34.1369748 L85.5231933,32.6445378 Z" id="path-12"></path>
        <path d="M85.5231933,32.6445378 C84.4038655,29.4710924 84.7759664,24.0579832 84.2178151,23.3112605 C80.6707563,18.4578151 67.9754622,17.7110924 62.1897479,11.3636975 C63.1235294,8.1912605 61.0704202,5.76403361 59.0178151,3.71092437 C55.8423529,1.4707563 51.5510924,2.40403361 48.1895798,3.33731092 C44.4564706,2.59109244 40.9089076,1.09714286 37.1763025,0.163865546 C28.9638655,-0.769411765 20.749916,5.01731092 20.749916,5.01731092 C14.7761345,8.75092437 5.63042017,16.5912605 1.14957983,21.0710924 C2.27092437,21.2581513 3.3897479,20.3248739 4.69714286,20.3248739 L13.2831933,18.0847059 C9.73764706,21.0715966 2.27092437,26.1115966 0.0307563025,30.2178151 C2.64302521,29.2845378 8.24319328,26.2976471 11.0430252,25.9245378 C8.61680672,27.9781513 3.57630252,32.0843697 1.89731092,34.6971429 C2.08336134,34.8847059 1.89731092,35.0707563 1.89731092,35.2568067 C3.94991597,34.1369748 8.98991597,31.150084 11.4166387,30.9635294 C8.99042017,33.3897479 4.69714286,38.2442017 3.76386555,41.4181513 C5.81647059,40.1107563 11.0430252,37.3109244 13.2831933,36.5631933 C12.7235294,37.870084 11.6042017,38.8033613 10.8569748,39.9231933 C9.73764706,41.6036975 7.30941176,43.6563025 7.30941176,45.7109244 C9.17596639,44.029916 11.4166387,42.5369748 13.6568067,41.4181513 C12.7235294,43.4702521 10.8569748,45.1512605 10.2968067,47.7630252 C11.7897479,46.270084 14.590084,45.5228571 16.4566387,44.9631933 L16.2705882,45.1512605 C16.082521,45.3368067 14.0304202,46.8297479 12.537479,48.5102521 C13.8423529,48.5102521 12.9090756,48.3231933 14.590084,48.6963025 L15.5233613,48.6963025 C15.1497479,48.8843697 14.590084,49.2559664 14.0304202,49.4435294 C13.2831933,49.8171429 12.349916,50.3773109 11.6042017,50.7504202 C15.1497479,55.2297479 19.4430252,58.9628571 24.4830252,61.3895798 C31.0164706,64.5630252 38.1090756,65.6848739 45.3887395,64.7510924 C45.3887395,64.377479 45.2031933,64.0038655 45.0176471,63.4442017 C44.8315966,62.8845378 44.6415126,62.5104202 44.6415126,61.9507563 C47.0697479,57.469916 45.7648739,49.6295798 52.1087395,46.4561345 C56.4040336,44.2179832 56.7751261,43.0966387 61.6321008,44.029916 C64.2423529,44.5895798 70.0321008,46.4561345 72.6423529,45.8969748 C75.070084,44.5895798 76.3754622,43.8443697 78.6181513,42.3514286 C81.232437,42.9110924 82.1657143,42.5369748 83.0989916,41.230084 C82.1657143,42.5369748 84.7759664,36.3771429 85.8993277,34.1369748 L85.5231933,32.6445378 Z" id="path-14"></path>
    </defs>
    <g id="Page-1" stroke="none" stroke-width="1" fill="none" fill-rule="evenodd">
        <g id="mdn-120">
            <polygon id="Shape" fill="url(#linearGradient-1)" fill-rule="nonzero" points="89.7852101 0.639831933 89.7852101 0.452773109 89.7852101 0.639831933 89.5996639 0.452773109 89.5996639 0.639831933 59.9188235 12.4003361 30.052437 0.639831933 30.052437 0.452773109 29.8668908 0.639831933 29.8668908 0.452773109 29.8668908 0.639831933 0 12.5863866 0 106.107731 29.8668908 94.7198319 59.9188235 106.107731 59.9188235 106.107731 59.9188235 106.107731 59.9188235 106.107731 59.9188235 106.107731 89.7852101 94.7198319 119.841681 106.107731 119.841681 12.5863866"></polygon>
            <g id="Group" fill-rule="nonzero">
                <polygon id="Shape" fill="url(#linearGradient-2)" points="0 12.5863866 0 106.107731 30.052437 94.7198319 30.052437 0.452773109"></polygon>
                <polygon id="Shape" fill="url(#linearGradient-3)" points="59.9188235 12.5863866 59.9188235 106.107731 29.8668908 94.7198319 29.8668908 0.452773109"></polygon>
                <polygon id="Shape" fill="url(#linearGradient-4)" points="59.9188235 12.5863866 59.9188235 106.107731 89.7852101 94.7198319 89.7852101 0.452773109"></polygon>
                <polygon id="Shape" fill="url(#linearGradient-5)" points="119.841681 12.5863866 119.841681 106.107731 89.5996639 94.7198319 89.5996639 0.452773109"></polygon>
            </g>
            <g id="Group" transform="translate(17.142857, 22.689076)">
                <g id="Clipped">
                    <mask id="mask-7" fill="white">
                        <use xlink:href="#path-6"></use>
                    </mask>
                    <g id="SVGID_6_"></g>
                    <path d="M42.7759664,-4.68857143 C73.4994958,-4.68857143 98.4040336,12.192605 98.4040336,33.0181513 C98.4040336,53.8442017 73.4989916,70.7238655 42.7759664,70.7238655 C12.0569748,70.7238655 -12.8495798,53.8436975 -12.8495798,33.0181513 C-12.8495798,12.192605 12.0569748,-4.68857143 42.7759664,-4.68857143 Z" id="Shape" fill="#FFFFFF" fill-rule="nonzero" mask="url(#mask-7)"></path>
                </g>
                <g id="Clipped">
                    <mask id="mask-9" fill="white">
                        <use xlink:href="#path-8"></use>
                    </mask>
                    <g id="SVGID_8_"></g>
                    <polygon id="Shape" fill="#F2F2F2" fill-rule="nonzero" mask="url(#mask-9)" points="-16.3956303 -8.42218487 -16.3956303 86.2184874 13.2836975 74.457479 13.2836975 -20.3692437"></polygon>
                </g>
                <g id="Clipped">
                    <mask id="mask-11" fill="white">
                        <use xlink:href="#path-10"></use>
                    </mask>
                    <g id="SVGID_10_"></g>
                    <polygon id="Shape" fill="#FFFFFF" fill-rule="nonzero" mask="url(#mask-11)" points="42.965042 -8.42218487 42.965042 86.2184874 13.0976471 74.457479 13.0976471 -20.3692437"></polygon>
                </g>
                <g id="Clipped">
                    <mask id="mask-13" fill="white">
                        <use xlink:href="#path-12"></use>
                    </mask>
                    <g id="SVGID_12_"></g>
                    <polygon id="Shape" fill="#F2F2F2" fill-rule="nonzero" mask="url(#mask-13)" points="42.965042 -8.42218487 42.965042 86.2184874 72.4568067 74.457479 72.4568067 -20.3692437"></polygon>
                </g>
                <g id="Clipped">
                    <mask id="mask-15" fill="white">
                        <use xlink:href="#path-14"></use>
                    </mask>
                    <g id="SVGID_14_"></g>
                    <polygon id="Shape" fill="#FFFFFF" fill-rule="nonzero" mask="url(#mask-15)" points="102.323193 -8.42218487 102.323193 86.2184874 72.4568067 74.457479 72.4568067 -20.3692437"></polygon>
                </g>
            </g>
        </g>
    </g>
</svg>