<?xml version="1.0" encoding="UTF-8"?>
<svg width="400px" height="353px" viewBox="0 0 400 353" version="1.1" xmlns="http://www.w3.org/2000/svg" xmlns:xlink="http://www.w3.org/1999/xlink">
    <!-- Generator: Sketch 49.3 (51167) - http://www.bohemiancoding.com/sketch -->
    <title>mdn-400</title>
    <desc>Created with Sketch.</desc>
    <defs>
        <linearGradient x1="49.9992477%" y1="100.099973%" x2="49.9992477%" y2="0.100755432%" id="linearGradient-1">
            <stop stop-color="#2075BC" offset="0%"></stop>
            <stop stop-color="#29AAE1" offset="100%"></stop>
        </linearGradient>
        <linearGradient x1="49.9986679%" y1="100.099973%" x2="49.9986679%" y2="0.100755432%" id="linearGradient-2">
            <stop stop-color="#0A6AA8" offset="0%"></stop>
            <stop stop-color="#1699C8" offset="100%"></stop>
        </linearGradient>
        <linearGradient x1="49.9972753%" y1="100.099973%" x2="49.9972753%" y2="0.100755432%" id="linearGradient-3">
            <stop stop-color="#2075BC" offset="0%"></stop>
            <stop stop-color="#29AAE1" offset="100%"></stop>
        </linearGradient>
        <linearGradient x1="49.9976061%" y1="100.099973%" x2="49.9976061%" y2="0.100755432%" id="linearGradient-4">
            <stop stop-color="#0A6AA8" offset="0%"></stop>
            <stop stop-color="#1699C8" offset="100%"></stop>
        </linearGradient>
        <linearGradient x1="49.9978359%" y1="100.099973%" x2="49.9978359%" y2="0.100755432%" id="linearGradient-5">
            <stop stop-color="#2075BC" offset="0%"></stop>
            <stop stop-color="#29AAE1" offset="100%"></stop>
        </linearGradient>
        <path d="M285.077311,108.815126 C281.346218,98.2369748 282.586555,80.1932773 280.72605,77.7042017 C268.902521,61.5260504 226.584874,59.0369748 207.29916,37.8789916 C210.411765,27.3042017 203.568067,19.2134454 196.72605,12.3697479 C186.141176,4.90252101 171.836975,8.01344538 160.631933,11.1243697 C148.188235,8.63697479 136.363025,3.65714286 123.921008,0.546218487 C96.5462185,-2.56470588 69.1663866,16.7243697 69.1663866,16.7243697 C49.2537815,29.1697479 18.7680672,55.3042017 3.83193277,70.2369748 C7.5697479,70.8605042 11.2991597,67.7495798 15.6571429,67.7495798 L44.2773109,60.2823529 C32.4588235,70.2386555 7.5697479,87.0386555 0.102521008,100.72605 C8.81008403,97.6151261 27.4773109,87.6588235 36.810084,86.4151261 C28.7226891,93.2605042 11.9210084,106.947899 6.32436975,115.657143 C6.94453782,116.282353 6.32436975,116.902521 6.32436975,117.522689 C13.1663866,113.789916 29.9663866,103.833613 38.0554622,103.211765 C29.9680672,111.29916 15.6571429,127.480672 12.5462185,138.060504 C19.3882353,133.702521 36.810084,124.369748 44.2773109,121.877311 C42.4117647,126.233613 38.6806723,129.344538 36.189916,133.077311 C32.4588235,138.678992 24.3647059,145.521008 24.3647059,152.369748 C30.5865546,146.766387 38.0554622,141.789916 45.5226891,138.060504 C42.4117647,144.90084 36.189916,150.504202 34.3226891,159.210084 C39.2991597,154.233613 48.6336134,151.742857 54.8554622,149.877311 L54.2352941,150.504202 C53.6084034,151.122689 46.7680672,156.09916 41.7915966,161.70084 C46.1411765,161.70084 43.0302521,161.077311 48.6336134,162.321008 L51.7445378,162.321008 C50.4991597,162.947899 48.6336134,164.186555 46.7680672,164.811765 C44.2773109,166.057143 41.1663866,167.92437 38.6806723,169.168067 C50.4991597,184.09916 64.810084,196.542857 81.610084,204.631933 C103.388235,215.210084 127.030252,218.94958 151.295798,215.836975 C151.295798,214.591597 150.677311,213.346218 150.058824,211.480672 C149.438655,209.615126 148.805042,208.368067 148.805042,206.502521 C156.89916,191.566387 152.54958,165.431933 173.695798,154.853782 C188.013445,147.393277 189.25042,143.655462 205.440336,146.766387 C214.141176,148.631933 233.440336,154.853782 242.141176,152.989916 C250.233613,148.631933 254.584874,146.147899 262.060504,141.171429 C270.77479,143.036975 273.885714,141.789916 276.996639,137.433613 C273.885714,141.789916 282.586555,121.257143 286.331092,113.789916 L285.077311,108.815126 Z" id="path-6"></path>
        <path d="M285.077311,108.815126 C281.346218,98.2369748 282.586555,80.1932773 280.72605,77.7042017 C268.902521,61.5260504 226.584874,59.0369748 207.29916,37.8789916 C210.411765,27.3042017 203.568067,19.2134454 196.72605,12.3697479 C186.141176,4.90252101 171.836975,8.01344538 160.631933,11.1243697 C148.188235,8.63697479 136.363025,3.65714286 123.921008,0.546218487 C96.5462185,-2.56470588 69.1663866,16.7243697 69.1663866,16.7243697 C49.2537815,29.1697479 18.7680672,55.3042017 3.83193277,70.2369748 C7.5697479,70.8605042 11.2991597,67.7495798 15.6571429,67.7495798 L44.2773109,60.2823529 C32.4588235,70.2386555 7.5697479,87.0386555 0.102521008,100.72605 C8.81008403,97.6151261 27.4773109,87.6588235 36.810084,86.4151261 C28.7226891,93.2605042 11.9210084,106.947899 6.32436975,115.657143 C6.94453782,116.282353 6.32436975,116.902521 6.32436975,117.522689 C13.1663866,113.789916 29.9663866,103.833613 38.0554622,103.211765 C29.9680672,111.29916 15.6571429,127.480672 12.5462185,138.060504 C19.3882353,133.702521 36.810084,124.369748 44.2773109,121.877311 C42.4117647,126.233613 38.6806723,129.344538 36.189916,133.077311 C32.4588235,138.678992 24.3647059,145.521008 24.3647059,152.369748 C30.5865546,146.766387 38.0554622,141.789916 45.5226891,138.060504 C42.4117647,144.90084 36.189916,150.504202 34.3226891,159.210084 C39.2991597,154.233613 48.6336134,151.742857 54.8554622,149.877311 L54.2352941,150.504202 C53.6084034,151.122689 46.7680672,156.09916 41.7915966,161.70084 C46.1411765,161.70084 43.0302521,161.077311 48.6336134,162.321008 L51.7445378,162.321008 C50.4991597,162.947899 48.6336134,164.186555 46.7680672,164.811765 C44.2773109,166.057143 41.1663866,167.92437 38.6806723,169.168067 C50.4991597,184.09916 64.810084,196.542857 81.610084,204.631933 C103.388235,215.210084 127.030252,218.94958 151.295798,215.836975 C151.295798,214.591597 150.677311,213.346218 150.058824,211.480672 C149.438655,209.615126 148.805042,208.368067 148.805042,206.502521 C156.89916,191.566387 152.54958,165.431933 173.695798,154.853782 C188.013445,147.393277 189.25042,143.655462 205.440336,146.766387 C214.141176,148.631933 233.440336,154.853782 242.141176,152.989916 C250.233613,148.631933 254.584874,146.147899 262.060504,141.171429 C270.77479,143.036975 273.885714,141.789916 276.996639,137.433613 C273.885714,141.789916 282.586555,121.257143 286.331092,113.789916 L285.077311,108.815126 Z" id="path-8"></path>
        <path d="M285.077311,108.815126 C281.346218,98.2369748 282.586555,80.1932773 280.72605,77.7042017 C268.902521,61.5260504 226.584874,59.0369748 207.29916,37.8789916 C210.411765,27.3042017 203.568067,19.2134454 196.72605,12.3697479 C186.141176,4.90252101 171.836975,8.01344538 160.631933,11.1243697 C148.188235,8.63697479 136.363025,3.65714286 123.921008,0.546218487 C96.5462185,-2.56470588 69.1663866,16.7243697 69.1663866,16.7243697 C49.2537815,29.1697479 18.7680672,55.3042017 3.83193277,70.2369748 C7.5697479,70.8605042 11.2991597,67.7495798 15.6571429,67.7495798 L44.2773109,60.2823529 C32.4588235,70.2386555 7.5697479,87.0386555 0.102521008,100.72605 C8.81008403,97.6151261 27.4773109,87.6588235 36.810084,86.4151261 C28.7226891,93.2605042 11.9210084,106.947899 6.32436975,115.657143 C6.94453782,116.282353 6.32436975,116.902521 6.32436975,117.522689 C13.1663866,113.789916 29.9663866,103.833613 38.0554622,103.211765 C29.9680672,111.29916 15.6571429,127.480672 12.5462185,138.060504 C19.3882353,133.702521 36.810084,124.369748 44.2773109,121.877311 C42.4117647,126.233613 38.6806723,129.344538 36.189916,133.077311 C32.4588235,138.678992 24.3647059,145.521008 24.3647059,152.369748 C30.5865546,146.766387 38.0554622,141.789916 45.5226891,138.060504 C42.4117647,144.90084 36.189916,150.504202 34.3226891,159.210084 C39.2991597,154.233613 48.6336134,151.742857 54.8554622,149.877311 L54.2352941,150.504202 C53.6084034,151.122689 46.7680672,156.09916 41.7915966,161.70084 C46.1411765,161.70084 43.0302521,161.077311 48.6336134,162.321008 L51.7445378,162.321008 C50.4991597,162.947899 48.6336134,164.186555 46.7680672,164.811765 C44.2773109,166.057143 41.1663866,167.92437 38.6806723,169.168067 C50.4991597,184.09916 64.810084,196.542857 81.610084,204.631933 C103.388235,215.210084 127.030252,218.94958 151.295798,215.836975 C151.295798,214.591597 150.677311,213.346218 150.058824,211.480672 C149.438655,209.615126 148.805042,208.368067 148.805042,206.502521 C156.89916,191.566387 152.54958,165.431933 173.695798,154.853782 C188.013445,147.393277 189.25042,143.655462 205.440336,146.766387 C214.141176,148.631933 233.440336,154.853782 242.141176,152.989916 C250.233613,148.631933 254.584874,146.147899 262.060504,141.171429 C270.77479,143.036975 273.885714,141.789916 276.996639,137.433613 C273.885714,141.789916 282.586555,121.257143 286.331092,113.789916 L285.077311,108.815126 Z" id="path-10"></path>
        <path d="M285.077311,108.815126 C281.346218,98.2369748 282.586555,80.1932773 280.72605,77.7042017 C268.902521,61.5260504 226.584874,59.0369748 207.29916,37.8789916 C210.411765,27.3042017 203.568067,19.2134454 196.72605,12.3697479 C186.141176,4.90252101 171.836975,8.01344538 160.631933,11.1243697 C148.188235,8.63697479 136.363025,3.65714286 123.921008,0.546218487 C96.5462185,-2.56470588 69.1663866,16.7243697 69.1663866,16.7243697 C49.2537815,29.1697479 18.7680672,55.3042017 3.83193277,70.2369748 C7.5697479,70.8605042 11.2991597,67.7495798 15.6571429,67.7495798 L44.2773109,60.2823529 C32.4588235,70.2386555 7.5697479,87.0386555 0.102521008,100.72605 C8.81008403,97.6151261 27.4773109,87.6588235 36.810084,86.4151261 C28.7226891,93.2605042 11.9210084,106.947899 6.32436975,115.657143 C6.94453782,116.282353 6.32436975,116.902521 6.32436975,117.522689 C13.1663866,113.789916 29.9663866,103.833613 38.0554622,103.211765 C29.9680672,111.29916 15.6571429,127.480672 12.5462185,138.060504 C19.3882353,133.702521 36.810084,124.369748 44.2773109,121.877311 C42.4117647,126.233613 38.6806723,129.344538 36.189916,133.077311 C32.4588235,138.678992 24.3647059,145.521008 24.3647059,152.369748 C30.5865546,146.766387 38.0554622,141.789916 45.5226891,138.060504 C42.4117647,144.90084 36.189916,150.504202 34.3226891,159.210084 C39.2991597,154.233613 48.6336134,151.742857 54.8554622,149.877311 L54.2352941,150.504202 C53.6084034,151.122689 46.7680672,156.09916 41.7915966,161.70084 C46.1411765,161.70084 43.0302521,161.077311 48.6336134,162.321008 L51.7445378,162.321008 C50.4991597,162.947899 48.6336134,164.186555 46.7680672,164.811765 C44.2773109,166.057143 41.1663866,167.92437 38.6806723,169.168067 C50.4991597,184.09916 64.810084,196.542857 81.610084,204.631933 C103.388235,215.210084 127.030252,218.94958 151.295798,215.836975 C151.295798,214.591597 150.677311,213.346218 150.058824,211.480672 C149.438655,209.615126 148.805042,208.368067 148.805042,206.502521 C156.89916,191.566387 152.54958,165.431933 173.695798,154.853782 C188.013445,147.393277 189.25042,143.655462 205.440336,146.766387 C214.141176,148.631933 233.440336,154.853782 242.141176,152.989916 C250.233613,148.631933 254.584874,146.147899 262.060504,141.171429 C270.77479,143.036975 273.885714,141.789916 276.996639,137.433613 C273.885714,141.789916 282.586555,121.257143 286.331092,113.789916 L285.077311,108.815126 Z" id="path-12"></path>
        <path d="M285.077311,108.815126 C281.346218,98.2369748 282.586555,80.1932773 280.72605,77.7042017 C268.902521,61.5260504 226.584874,59.0369748 207.29916,37.8789916 C210.411765,27.3042017 203.568067,19.2134454 196.72605,12.3697479 C186.141176,4.90252101 171.836975,8.01344538 160.631933,11.1243697 C148.188235,8.63697479 136.363025,3.65714286 123.921008,0.546218487 C96.5462185,-2.56470588 69.1663866,16.7243697 69.1663866,16.7243697 C49.2537815,29.1697479 18.7680672,55.3042017 3.83193277,70.2369748 C7.5697479,70.8605042 11.2991597,67.7495798 15.6571429,67.7495798 L44.2773109,60.2823529 C32.4588235,70.2386555 7.5697479,87.0386555 0.102521008,100.72605 C8.81008403,97.6151261 27.4773109,87.6588235 36.810084,86.4151261 C28.7226891,93.2605042 11.9210084,106.947899 6.32436975,115.657143 C6.94453782,116.282353 6.32436975,116.902521 6.32436975,117.522689 C13.1663866,113.789916 29.9663866,103.833613 38.0554622,103.211765 C29.9680672,111.29916 15.6571429,127.480672 12.5462185,138.060504 C19.3882353,133.702521 36.810084,124.369748 44.2773109,121.877311 C42.4117647,126.233613 38.6806723,129.344538 36.189916,133.077311 C32.4588235,138.678992 24.3647059,145.521008 24.3647059,152.369748 C30.5865546,146.766387 38.0554622,141.789916 45.5226891,138.060504 C42.4117647,144.90084 36.189916,150.504202 34.3226891,159.210084 C39.2991597,154.233613 48.6336134,151.742857 54.8554622,149.877311 L54.2352941,150.504202 C53.6084034,151.122689 46.7680672,156.09916 41.7915966,161.70084 C46.1411765,161.70084 43.0302521,161.077311 48.6336134,162.321008 L51.7445378,162.321008 C50.4991597,162.947899 48.6336134,164.186555 46.7680672,164.811765 C44.2773109,166.057143 41.1663866,167.92437 38.6806723,169.168067 C50.4991597,184.09916 64.810084,196.542857 81.610084,204.631933 C103.388235,215.210084 127.030252,218.94958 151.295798,215.836975 C151.295798,214.591597 150.677311,213.346218 150.058824,211.480672 C149.438655,209.615126 148.805042,208.368067 148.805042,206.502521 C156.89916,191.566387 152.54958,165.431933 173.695798,154.853782 C188.013445,147.393277 189.25042,143.655462 205.440336,146.766387 C214.141176,148.631933 233.440336,154.853782 242.141176,152.989916 C250.233613,148.631933 254.584874,146.147899 262.060504,141.171429 C270.77479,143.036975 273.885714,141.789916 276.996639,137.433613 C273.885714,141.789916 282.586555,121.257143 286.331092,113.789916 L285.077311,108.815126 Z" id="path-14"></path>
    </defs>
    <g id="Page-1" stroke="none" stroke-width="1" fill="none" fill-rule="evenodd">
        <g id="mdn-400" transform="translate(0.000000, -1.000000)">
            <polygon id="Shape" fill="url(#linearGradient-1)" fill-rule="nonzero" points="299.284034 2.13277311 299.284034 1.5092437 299.284034 2.13277311 298.665546 1.5092437 298.665546 2.13277311 199.729412 41.3344538 100.17479 2.13277311 100.17479 1.5092437 99.5563025 2.13277311 99.5563025 1.5092437 99.5563025 2.13277311 0 41.9546218 0 353.692437 99.5563025 315.732773 199.729412 353.692437 199.729412 353.692437 199.729412 353.692437 199.729412 353.692437 199.729412 353.692437 299.284034 315.732773 399.472269 353.692437 399.472269 41.9546218"></polygon>
            <g id="Group" fill-rule="nonzero">
                <polygon id="Shape" fill="url(#linearGradient-2)" points="0 41.9546218 0 353.692437 100.17479 315.732773 100.17479 1.5092437"></polygon>
                <polygon id="Shape" fill="url(#linearGradient-3)" points="199.729412 41.9546218 199.729412 353.692437 99.5563025 315.732773 99.5563025 1.5092437"></polygon>
                <polygon id="Shape" fill="url(#linearGradient-4)" points="199.729412 41.9546218 199.729412 353.692437 299.284034 315.732773 299.284034 1.5092437"></polygon>
                <polygon id="Shape" fill="url(#linearGradient-5)" points="399.472269 41.9546218 399.472269 353.692437 298.665546 315.732773 298.665546 1.5092437"></polygon>
            </g>
            <g id="Group" transform="translate(57.142857, 75.630252)">
                <g id="Clipped">
                    <mask id="mask-7" fill="white">
                        <use xlink:href="#path-6"></use>
                    </mask>
                    <g id="SVGID_6_"></g>
                    <path d="M142.586555,-15.6285714 C244.998319,-15.6285714 328.013445,40.6420168 328.013445,110.060504 C328.013445,179.480672 244.996639,235.746218 142.586555,235.746218 C40.189916,235.746218 -42.8319328,179.478992 -42.8319328,110.060504 C-42.8319328,40.6420168 40.189916,-15.6285714 142.586555,-15.6285714 Z" id="Shape" fill="#FFFFFF" fill-rule="nonzero" mask="url(#mask-7)"></path>
                </g>
                <g id="Clipped">
                    <mask id="mask-9" fill="white">
                        <use xlink:href="#path-8"></use>
                    </mask>
                    <g id="SVGID_8_"></g>
                    <polygon id="Shape" fill="#F2F2F2" fill-rule="nonzero" mask="url(#mask-9)" points="-54.6521008 -28.0739496 -54.6521008 287.394958 44.2789916 248.191597 44.2789916 -67.897479"></polygon>
                </g>
                <g id="Clipped">
                    <mask id="mask-11" fill="white">
                        <use xlink:href="#path-10"></use>
                    </mask>
                    <g id="SVGID_10_"></g>
                    <polygon id="Shape" fill="#FFFFFF" fill-rule="nonzero" mask="url(#mask-11)" points="143.216807 -28.0739496 143.216807 287.394958 43.6588235 248.191597 43.6588235 -67.897479"></polygon>
                </g>
                <g id="Clipped">
                    <mask id="mask-13" fill="white">
                        <use xlink:href="#path-12"></use>
                    </mask>
                    <g id="SVGID_12_"></g>
                    <polygon id="Shape" fill="#F2F2F2" fill-rule="nonzero" mask="url(#mask-13)" points="143.216807 -28.0739496 143.216807 287.394958 241.522689 248.191597 241.522689 -67.897479"></polygon>
                </g>
                <g id="Clipped">
                    <mask id="mask-15" fill="white">
                        <use xlink:href="#path-14"></use>
                    </mask>
                    <g id="SVGID_14_"></g>
                    <polygon id="Shape" fill="#FFFFFF" fill-rule="nonzero" mask="url(#mask-15)" points="341.077311 -28.0739496 341.077311 287.394958 241.522689 248.191597 241.522689 -67.897479"></polygon>
                </g>
            </g>
        </g>
    </g>
</svg>